# xmcd
#
# Track frame offsets:
#	150
#	14409
#	33895
#	54474
#	74828
#	89949
#	108834
#	129531
#	142563
#	162443
#	182751
#	206613
#
# Disc length: 3032 seconds
#
# Revision: 1
# Processed by: cddbd v1.5.2PL0 Copyright (c) Steve Scherf et al.
# Submitted via: audiograbber 1.83.01
#
DISCID=a90bd60c
DTITLE=Buck Satan And The 666 Shooters - Bikers Welcome Ladies Drink Free
DYEAR=2012
DGENRE=Rock
TTITLE0=Quicker Than Liquor
TTITLE1=What´s Wrong With Me
TTITLE2=Medication Nation
TTITLE3=Drug Store Truck Drivin' Man
TTITLE4=The Only Time I'M Sober Is When You're Gone
TTITLE5=Cheap Wine, Cheap Ramen
TTITLE6=Down The Drain
TTITLE7=Sleepless Nights And Bar Room Fights
TTITLE8=Friend Of The Devil
TTITLE9=Ten Long Years In Texas
TTITLE10=I Hate Every Bone In Your Body Except Mine
TTITLE11=Take Me Away
EXTD=
EXTT0=
EXTT1=
EXTT2=
EXTT3=
EXTT4=
EXTT5=
EXTT6=
EXTT7=
EXTT8=
EXTT9=
EXTT10=
EXTT11=
PLAYORDER=
